<?xml version="1.0" encoding="utf-8"?>
<!-- Generator: Adobe Illustrator 26.3.1, SVG Export Plug-In . SVG Version: 6.00 Build 0)  -->
<svg version="1.1" id="Layer_1" xmlns="http://www.w3.org/2000/svg" xmlns:xlink="http://www.w3.org/1999/xlink" x="0px" y="0px"
	 viewBox="0 0 60 60" style="enable-background:new 0 0 60 60;" xml:space="preserve">
<style type="text/css">
	.st0{fill:#EAECEE;}
	.st1{fill:#FFFFFF;stroke:#808DA0;stroke-linecap:round;stroke-linejoin:round;}
	.st2{fill:#FFFFFF;stroke:#808DA0;stroke-miterlimit:10;}
	.st3{fill:#E6E8EC;stroke:#808DA0;stroke-linecap:round;stroke-linejoin:round;stroke-miterlimit:10;}
	.st4{fill:none;stroke:#808DA0;stroke-miterlimit:10;}
	.st5{fill:#FFFFFF;stroke:#808DA0;}
	.st6{fill:#E6E8EC;stroke:#808DA0;}
	.st7{fill:none;stroke:#808DA0;stroke-width:2;stroke-linecap:round;stroke-miterlimit:10;}
</style>
<path class="st0" d="M55,31c0,13.3-10.7,24-24,24S7,44.3,7,31C7,17.7,17.7,7,31,7S55,17.7,55,31"/>
<ellipse transform="matrix(0.3061 -0.952 0.952 0.3061 -19.6736 58.0739)" class="st1" cx="30" cy="42.5" rx="3.3" ry="3.8"/>
<g>
	<path class="st2" d="M29.1,36.1l-11.3,3.3c-1.6,0.5-3.2-0.4-3.6-2l-2.8-9.6c-0.5-1.6,0.4-3.2,2-3.6l12.3-3.7c0.3,0,2.6,2.6,3,4.2
		l0.8,2.2l0.3,4.6L29.1,36.1z"/>
	<path class="st3" d="M23,26.3c2.1-0.6,3.5-1,5.6-1.7"/>
	<path class="st3" d="M23.5,28.1c2.1-0.6,3.5-1,5.6-1.7"/>
	<path class="st3" d="M24.1,30c2.1-0.6,3.3-1,5.4-1.6"/>
	<path class="st3" d="M24.6,31.9c2.1-0.6,2.8-0.8,5-1.5"/>
	<g>
		<circle class="st4" cx="17.9" cy="29.2" r="1.7"/>
		<path class="st4" d="M18.4,30.9c-1.6,0.5-2.5,2.1-2,3.7l5.7-1.7C21.7,31.3,20,30.4,18.4,30.9z"/>
	</g>
</g>
<g>
	<path class="st5" d="M33.9,51.9l-9.5-29.2l-0.3-0.9c-0.8-2.5,0.6-5,3.1-5.8L45,10.3c0,0,3.4,3.8,5.2,6.7l2.1,6.3
		c0,0,1.5,9.4-2.4,16.5C43.9,50.7,33.9,51.9,33.9,51.9z"/>
	<line class="st5" x1="48.5" y1="14.8" x2="24.4" y2="22.9"/>
	<line class="st1" x1="34.1" y1="17.1" x2="42.8" y2="14.4"/>
	<path class="st6" d="M53.4,28.4"/>
	<path class="st6" d="M37.2,51l-8.1-24.5c-0.2-0.5,0.1-1,0.6-1.2L51,18.2c0,0,3.9,10.4-0.2,20.1C46.8,47.5,37.2,51,37.2,51z"/>
</g>
<path class="st7" d="M6.2,40.2C4.2,36.6,3,32.4,3,28C3,14.2,14.2,3,28,3s25,11.2,25,25S41.8,53,28,53c-5.9,0-11.3-2-15.6-5.5"/>
</svg>
