<?xml version="1.0" encoding="utf-8"?>
<!-- Generator: Adobe Illustrator 26.3.1, SVG Export Plug-In . SVG Version: 6.00 Build 0)  -->
<svg version="1.1" id="Layer_1" xmlns="http://www.w3.org/2000/svg" xmlns:xlink="http://www.w3.org/1999/xlink" x="0px" y="0px"
	 viewBox="0 0 60 60" style="enable-background:new 0 0 60 60;" xml:space="preserve">
<style type="text/css">
	.st0{fill:#EAECEE;}
	.st1{fill:#FFFFFF;stroke:#808DA0;stroke-linecap:round;stroke-linejoin:round;}
	.st2{fill:#FFFFFF;stroke:#808DA0;stroke-width:0.8;stroke-miterlimit:10;}
	.st3{fill:#E6E8EC;stroke:#808DA0;stroke-width:0.8;stroke-linecap:round;stroke-linejoin:round;stroke-miterlimit:10;}
	.st4{fill:none;stroke:#808DA0;stroke-width:0.8;stroke-miterlimit:10;}
	.st5{fill:#FFFFFF;stroke:#808DA0;stroke-width:0.8;}
	.st6{fill:#FFFFFF;stroke:#808DA0;stroke-width:0.8;stroke-linecap:round;stroke-linejoin:round;}
	.st7{fill:#E6E8EC;stroke:#808DA0;stroke-width:0.8;}
	.st8{fill:none;stroke:#808DA0;stroke-width:2;stroke-linecap:round;stroke-miterlimit:10;}
	.st9{fill:#808DA0;stroke:#808DA0;}
	.st10{fill:none;stroke:#808DA0;stroke-miterlimit:10;}
	.st11{fill:#FFFFFF;}
</style>
<path class="st0" d="M55,31c0,13.3-10.7,24-24,24S7,44.3,7,31C7,17.7,17.7,7,31,7S55,17.7,55,31"/>
<ellipse transform="matrix(0.3061 -0.952 0.952 0.3061 -16.7817 65.9268)" class="st1" cx="36.8" cy="44.5" rx="2.6" ry="3"/>
<g>
	<path class="st2" d="M36.2,39.4l-9,2.6c-1.2,0.4-2.5-0.3-2.9-1.6L22,32.8c-0.4-1.2,0.3-2.5,1.6-2.9l9.7-2.9c0.3,0,2,2.1,2.4,3.3
		l0.6,1.8l0.2,3.6L36.2,39.4z"/>
	<path class="st3" d="M31.3,31.6c1.7-0.5,2.8-0.8,4.5-1.3"/>
	<path class="st3" d="M31.7,33c1.7-0.5,2.8-0.8,4.5-1.3"/>
	<path class="st3" d="M32.1,34.5c1.7-0.5,2.6-0.8,4.3-1.3"/>
	<path class="st3" d="M32.6,36.1c1.7-0.5,2.2-0.7,3.9-1.2"/>
	<g>
		<circle class="st4" cx="27.3" cy="33.9" r="1.4"/>
		<path class="st4" d="M27.6,35.2c-1.3,0.4-2,1.7-1.6,2.9l4.5-1.3C30.2,35.6,28.9,34.9,27.6,35.2z"/>
	</g>
</g>
<g>
	<path class="st5" d="M39.4,50.3l-7-21.5L32.1,28c-0.6-1.9,0.5-4,2.4-4.6l16.2-5.3c0,0,1.5,3.1,2.1,6l0.2,5.1"/>
	<line class="st5" x1="51.5" y1="22.5" x2="32.4" y2="28.9"/>
	<line class="st6" x1="40.1" y1="24.3" x2="47" y2="22.1"/>
	<path class="st7" d="M55.4,33.3"/>
	<path class="st7" d="M41.6,48.4l-5.5-16.6c-0.1-0.4,0.1-0.8,0.5-1L52,25.7c0.5-0.2,1,0.4,0.8,0.9c0,0-0.6,8.6-2.4,12.9
		C48.4,44.2,41.6,48.4,41.6,48.4z"/>
</g>
<path class="st8" d="M6.2,40.2C4.2,36.6,3,32.4,3,28C3,14.2,14.2,3,28,3s25,11.2,25,25S41.8,53,28,53c-5.9,0-11.3-2-15.6-5.5"/>
<path class="st9" d="M23.6,4.2L23.6,4.2l0.1,4.5h-0.1V4.2z"/>
<path class="st10" d="M21,10.7c0-0.4,0.2-0.7,0.5-0.7h4c0.3,0,0.5,0.3,0.5,0.7V12h-5V10.7z"/>
<path class="st10" d="M21,14h5v-2h-5V14z"/>
<path class="st11" d="M33.1,26c0,4.4-3.6,8-8,8s-8-3.6-8-8v-0.7c0-1.5,0.6-2.6,1.5-4c1-1.6,2.2-3.7,3.1-7.2h6.8
	c0.9,3.5,2.1,5.5,3.1,7.2c0.9,1.5,1.5,2.6,1.5,4V26z"/>
<path class="st10" d="M23.5,30.3c-5.4,0-6.4-4.9-6-7.3c0.5-3,2.8-6.2,3.4-9h5.1c0.7,2.8,2.5,5.9,3.4,9
	C30.2,25.3,28.9,30.3,23.5,30.3z"/>
<path class="st10" d="M24.1,28.5c0,0,1.5-0.4,2.6-1.7c0.9-1.1,1.2-2.5,1.2-2.5"/>
</svg>
