<?xml version="1.0" encoding="utf-8"?>
<!-- Generator: Adobe Illustrator 26.3.1, SVG Export Plug-In . SVG Version: 6.00 Build 0)  -->
<svg version="1.1" id="Layer_1" xmlns="http://www.w3.org/2000/svg" xmlns:xlink="http://www.w3.org/1999/xlink" x="0px" y="0px"
	 viewBox="0 0 60 60" style="enable-background:new 0 0 60 60;" xml:space="preserve">
<style type="text/css">
	.st0{fill:#EAECEE;}
	.st1{fill:#E6E8EC;stroke:#808DA0;stroke-miterlimit:10;}
	.st2{fill:#E6E8EC;stroke:#808DA0;stroke-linecap:round;stroke-linejoin:round;stroke-miterlimit:10;}
	.st3{fill:none;stroke:#808DA0;stroke-miterlimit:10;}
	.st4{fill:#B8C1CC;}
	.st5{fill:#FFFFFF;}
	.st6{fill:none;stroke:#808DA0;stroke-width:2;stroke-linecap:round;stroke-miterlimit:10;}
</style>
<path class="st0" d="M55,31c0,13.3-10.7,24-24,24S7,44.3,7,31C7,17.7,17.7,7,31,7S55,17.7,55,31"/>
<g>
	<path class="st1" d="M36.9,51.4l-19.3-7.8c-3-1.2-4.4-4.6-3.2-7.5l7.4-18.3c1.2-3,4.6-4.4,7.5-3.2l23.5,9.3
		c0.6,0.3,0.8,7.2-0.4,10.1l-1.5,4.4l-5.2,7.4L36.9,51.4z"/>
	<path class="st2" d="M41.5,29.7c4.1,1.6,6.6,2.7,10.7,4.3"/>
	<path class="st2" d="M40.1,33.1c4.1,1.6,6.7,2.7,10.8,4.3"/>
	<path class="st2" d="M38.7,36.8c4.1,1.6,6.6,2.6,10.7,4.3"/>
	<path class="st2" d="M37.2,40.5c4.1,1.6,5.6,2.3,9.7,3.9"/>
	<g>
		<circle class="st3" cx="30.1" cy="28" r="3.4"/>
		<path class="st3" d="M28.8,31.2c-3-1.2-6.4,0.2-7.7,3.3l10.9,4.4C33.3,35.9,31.8,32.4,28.8,31.2z"/>
	</g>
</g>
<g>
	<polygon class="st4" points="24.1,12.6 26.1,17.2 30.9,18.7 26.3,20.7 24.8,25.4 22.8,20.8 18.1,19.4 22.7,17.4 	"/>
	<polygon class="st5" points="23.8,11.1 25.8,15.7 30.5,17.2 26,19.1 24.5,23.9 22.5,19.3 17.8,17.8 22.3,15.9 	"/>
</g>
<g>
	<polygon class="st4" points="32.4,13.3 33.2,15.1 35.2,15.7 33.3,16.5 32.7,18.5 31.9,16.6 30,16 31.8,15.2 	"/>
	<polygon class="st5" points="32.3,12.6 33.1,14.5 35.1,15.1 33.2,15.9 32.6,17.9 31.8,16 29.8,15.4 31.7,14.6 	"/>
</g>
<g>
	<polygon class="st4" points="30.9,20.7 31.9,23.1 34.4,23.9 32,24.9 31.3,27.5 30.2,25 27.7,24.3 30.1,23.2 	"/>
	<polygon class="st5" points="30.7,19.9 31.8,22.3 34.3,23.1 31.9,24.1 31.1,26.6 30.1,24.2 27.6,23.5 30,22.4 	"/>
</g>
<path class="st6" d="M6.2,40.2C4.2,36.6,3,32.4,3,28C3,14.2,14.2,3,28,3s25,11.2,25,25S41.8,53,28,53c-5.9,0-11.3-2-15.6-5.5"/>
</svg>
