<?xml version="1.0" encoding="utf-8"?>
<!-- Generator: Adobe Illustrator 26.5.0, SVG Export Plug-In . SVG Version: 6.00 Build 0)  -->
<svg version="1.1" id="Layer_1" xmlns="http://www.w3.org/2000/svg" xmlns:xlink="http://www.w3.org/1999/xlink" x="0px" y="0px"
	 viewBox="0 0 50 50" style="enable-background:new 0 0 50 50;" xml:space="preserve">
<style type="text/css">
	.st0{clip-path:url(#SVGID_00000147204096660751304750000007750406284266948005_);}
	.st1{fill:#EAECEE;}
	.st2{fill:#FFFFFF;stroke:#808DA0;stroke-width:0.8;stroke-miterlimit:10;}
	.st3{fill:#808DA0;}
	.st4{fill:none;stroke:#808DA0;stroke-width:0.8;stroke-linecap:round;stroke-linejoin:round;}
	.st5{fill:none;stroke:#FFFFFF;stroke-width:0.4;stroke-miterlimit:10;}
	.st6{fill:none;stroke:#808DA0;stroke-width:1.5;stroke-linecap:round;stroke-miterlimit:10;}
</style>
<g>
	<defs>
		<rect id="SVGID_1_" y="0" width="50" height="50"/>
	</defs>
	<clipPath id="SVGID_00000021838753419017672490000014139828867196709257_">
		<use xlink:href="#SVGID_1_"  style="overflow:visible;"/>
	</clipPath>
	<g style="clip-path:url(#SVGID_00000021838753419017672490000014139828867196709257_);">
		<path class="st1" d="M50,27.4C50,39.9,39.9,50,27.4,50S4.7,39.9,4.7,27.4S14.8,4.7,27.4,4.7S50,14.8,50,27.4z"/>
		<path class="st2" d="M18.8,38.5c-2.2,1.3-8.3,0-9.3,4c0,0,7.5,6.5,16,6s15.8-7.4,15.8-7.4c-1.3-2.6-8-1.3-10.2-2.7
			c-0.9-0.5-1.5-2.9-2.4-3.2c-0.9-0.3-2.8,0.5-3.8,0.5c-1,0-2.8-0.8-3.7-0.5C20.3,35.6,19.7,38,18.8,38.5z"/>
		<path class="st2" d="M22.5,33.7c0.6,0.3,1.9,0.6,2.5,0.6c0.6,0,2-0.2,2.6-0.5c1.3-0.6,3.7-2.7,4.3-4c0.2-0.4-0.1-1.3,0-1.7
			c0-0.1,0.1-0.4,0.2-0.5c0.1-0.3,0-0.9,0-1.2c0-0.4,0.5-1,0.5-1.4c0.1-1.4-0.9-1.3-0.8-1.7c0-0.2,0.6-0.3,0.8-0.5
			c0.8-1,0.5-3.8,0.6-5c0.2-5.1-6.2-8.6-6.2-8.6s0.3,2-1.9,2.6c-1,0.5-4.4-1.1-7.2,3c-0.5,0.6-0.8,2.3-0.9,3.1c-0.2,1.3-0.1,4,0.6,5
			c0.1,0.1,0.4,0.3,0.6,0.4c0,0,0.1,0.1,0.1,0.1c0.1,0.5-0.9,0.2-0.8,1.7c0,0.4,0.3,1,0.3,1.4c0,0.3,0,1,0.1,1.3
			c0.1,0.1,0.3,0.2,0.3,0.4c0.2,0.4,0,1.4,0.2,1.7C19,31,21.2,33,22.5,33.7L22.5,33.7z"/>
		<path class="st3" d="M22.2,23.8c0.4,0,0.7-0.3,0.7-0.7s-0.3-0.7-0.7-0.7s-0.7,0.3-0.7,0.7S21.8,23.8,22.2,23.8z"/>
		<path class="st3" d="M27.8,23.8c0.4,0,0.7-0.3,0.7-0.7s-0.3-0.7-0.7-0.7c-0.4,0-0.7,0.3-0.7,0.7S27.4,23.8,27.8,23.8z"/>
		<path class="st4" d="M31.8,23.2c0,0,0.1-3.7-0.2-4c-0.2-0.1-1.5,1.2-3.2,1.1c-3.1-0.1-5.8-2.6-8.9-2c-0.4,0.1-1,0.6-1.2,1
			c-0.4,0.8-0.1,3.8-0.1,3.8"/>
		<path class="st3" d="M30.5,25.9c-1.3,0-2.6-0.2-3.8-0.6C26.2,25.2,25.6,25,25,25c-0.6,0-1.2,0.1-1.7,0.3c-1.2,0.4-2.5,0.6-3.8,0.6
			c-0.1,0-0.2,0.1-0.2,0.2V27c0,3.2,2.6,5.7,5.7,5.7s5.7-2.6,5.7-5.7v-0.8C30.8,26,30.7,25.9,30.5,25.9L30.5,25.9z"/>
		<path class="st5" d="M27.6,27.1c-0.9,0-1.8-0.6-2.7-0.6c-0.9,0-1.8,0.6-2.7,0.5"/>
		<path class="st6" d="M4,36c-1.9-3.4-3-7.4-3-11.5c0-13,10.6-23.6,23.6-23.6c13,0,23.6,10.6,23.6,23.6S37.5,48.1,24.5,48.1
			c-5.6,0-10.7-1.9-14.7-5.2"/>
	</g>
</g>
</svg>
