<?xml version="1.0" encoding="utf-8"?>
<!-- Generator: Adobe Illustrator 26.3.1, SVG Export Plug-In . SVG Version: 6.00 Build 0)  -->
<svg version="1.1" id="Layer_1" xmlns="http://www.w3.org/2000/svg" xmlns:xlink="http://www.w3.org/1999/xlink" x="0px" y="0px"
	 viewBox="0 0 60 60" style="enable-background:new 0 0 60 60;" xml:space="preserve">
<style type="text/css">
	.st0{fill:#EAECEE;}
	.st1{fill:#E6E8EC;stroke:#808DA0;stroke-linecap:round;stroke-linejoin:round;}
	.st2{fill:none;stroke:#808DA0;}
	.st3{fill:#FFFFFF;}
	.st4{fill:none;stroke:#808DA0;stroke-width:0.5;}
	.st5{fill:none;stroke:#808DA0;stroke-width:2;stroke-linecap:round;stroke-miterlimit:10;}
	.st6{fill:#B8C1CC;}
</style>
<path class="st0" d="M55,31c0,13.3-10.7,24-24,24S7,44.3,7,31C7,17.7,17.7,7,31,7S55,17.7,55,31"/>
<path class="st1" d="M22,52.3l-8.5-25.9c-0.7-2.3,0.6-4.7,2.9-5.4l30.8-9.7c0,0,2.7,4.2,3.4,5.8c1.3,3,2.7,9.5,2.5,12.7
	c-0.3,3.4-1,7.5-4.7,12.9c-2.1,3-1.4,3.1-11.5,8.8C32.2,53.9,22,52.3,22,52.3z"/>
<circle class="st2" cx="25.5" cy="30.2" r="5.2"/>
<circle class="st3" cx="25.5" cy="30.2" r="2.9"/>
<circle class="st4" cx="33.4" cy="24.5" r="1.9"/>
<path class="st5" d="M6.2,40.2C4.2,36.6,3,32.4,3,28C3,14.2,14.2,3,28,3s25,11.2,25,25S41.8,53,28,53c-5.9,0-11.3-2-15.6-5.5"/>
<g>
	<polygon class="st6" points="26.7,14.6 28.7,19.1 33.4,20.6 28.8,22.6 27.4,27.3 25.4,22.8 20.6,21.3 25.2,19.3 	"/>
	<polygon class="st3" points="26.4,13 28.3,17.6 33.1,19.1 28.5,21.1 27,25.8 25.1,21.2 20.3,19.8 24.9,17.8 	"/>
</g>
<g>
	<polygon class="st6" points="19.5,29.3 20.3,31.2 22.2,31.8 20.3,32.6 19.7,34.5 18.9,32.7 17,32.1 18.9,31.3 	"/>
	<polygon class="st3" points="19.3,28.7 20.1,30.6 22.1,31.2 20.2,32 19.6,33.9 18.8,32 16.9,31.4 18.7,30.6 	"/>
</g>
<g>
	<polygon class="st6" points="29.1,33 30.2,35.5 32.7,36.2 30.2,37.3 29.5,39.8 28.4,37.4 25.9,36.6 28.3,35.6 	"/>
	<polygon class="st3" points="28.9,32.2 30,34.6 32.5,35.4 30.1,36.5 29.3,39 28.3,36.6 25.8,35.8 28.2,34.7 	"/>
</g>
</svg>
