<?xml version="1.0" encoding="utf-8"?>
<!-- Generator: Adobe Illustrator 26.3.1, SVG Export Plug-In . SVG Version: 6.00 Build 0)  -->
<svg version="1.1" id="Layer_1" xmlns="http://www.w3.org/2000/svg" xmlns:xlink="http://www.w3.org/1999/xlink" x="0px" y="0px"
	 viewBox="0 0 60 60" style="enable-background:new 0 0 60 60;" xml:space="preserve">
<style type="text/css">
	.st0{fill:#EAECEE;}
	.st1{fill:#B3BBC6;stroke:#808DA0;stroke-width:0.8;}
	.st2{fill:#FFFFFF;stroke:#808DA0;stroke-width:0.8;}
	.st3{fill:#FFFFFF;stroke:#808DA0;}
	.st4{fill:none;stroke:#808DA0;stroke-width:2;stroke-linecap:round;stroke-miterlimit:10;}
	.st5{fill:none;stroke:#B3BBC6;stroke-width:0.6;stroke-dasharray:1,1;}
	.st6{fill:none;stroke:#42BE65;stroke-width:0.6;}
	.st7{fill:#42BE65;}
	.st8{fill:#B3BBC6;}
</style>
<path class="st0" d="M55,31c0,13.3-10.7,24-24,24S7,44.3,7,31C7,17.7,17.7,7,31,7S55,17.7,55,31"/>
<path class="st1" d="M28.5,38.4l-0.8-16.9c0-0.4-0.4-0.7-0.8-0.6c-0.3,0.1-0.5,0.3-0.5,0.7l0.7,16.9c0,0.3,0.2,0.6,0.6,0.6
	C28.2,39.2,28.5,38.8,28.5,38.4z"/>
<path class="st2" d="M29.5,33 M25.5,34.1c-0.2,0.8-1,1.6-0.4,2.3c0.7,0.9,1.2,2.6,1.8,3.3c1.3,1.4,3.4,1,5,3c0.6,0.9,2.3,2.4,7.6,7
	l3.4-2.5l3-2.7L36,39c-1.3-4.1-4.9-8-8.2-10.5c-1.8,0.8,3.1,4.9,2,4.6c0,0-4-3.8-5-2.6c-0.4,0.5,0.6,1.1,0.5,1.5
	c-0.1,0.2-0.7,0.2-0.8,0.5C24.5,33,25.6,33.7,25.5,34.1z M26.3,35.7"/>
<path class="st3" d="M49.2,41c-0.4-0.5-0.8-1.9-0.8-2.9c-0.1-1,0.3-3-0.7-2.7c-1,0.2-5.5,1.1-6.7,0.5c-1.2-0.6-0.1-2.3-0.1-2.3
	s-0.8-1.1-0.8-1.5c0-0.3,0.5-0.7,0.5-1c0-0.3-0.8-0.7-0.9-1c-0.1-0.5,0.3-1.3-0.2-2.2c-0.4-0.9-1.7-0.3-2.4-1.2s2.5-3.9,3.1-5.3
	c0.8-1.8-0.3-2.5,0.2-4.7c0.5-2.7,2-4.1,0.4-4.3c-2.1-0.4,2.5-4,2.5-4s5.4,5.4,6.6,7.7c1.3,2.6,2.7,8.5,2.9,11.4
	C53.4,32.5,49.2,41,49.2,41z"/>
<path class="st4" d="M6.2,40.2C4.2,36.6,3,32.4,3,28C3,14.2,14.2,3,28,3s25,11.2,25,25S41.8,53,28,53c-5.9,0-11.3-2-15.6-5.5"/>
<path class="st5" d="M13.1,32.8c1.7,7.5,7.7,10.5,7.7,10.5"/>
<path class="st6" d="M22.2,13.1c0,0-9.2,4.3-9.2,15.5"/>
<polygon class="st7" points="23,14.6 22.1,13.1 21.2,11.7 22.9,11.6 24.6,11.6 23.8,13.1 "/>
<polygon class="st7" points="11.4,29 13.1,29 14.8,29 13.9,30.5 13.1,32 12.2,30.5 "/>
<polygon class="st8" points="20.4,45.3 21.3,43.8 22.2,42.3 23,43.8 23.9,45.3 22.2,45.3 "/>
</svg>
