<?xml version="1.0" encoding="utf-8"?>
<!-- Generator: Adobe Illustrator 26.3.1, SVG Export Plug-In . SVG Version: 6.00 Build 0)  -->
<svg version="1.1" id="Layer_1" xmlns="http://www.w3.org/2000/svg" xmlns:xlink="http://www.w3.org/1999/xlink" x="0px" y="0px"
	 viewBox="0 0 60 60" style="enable-background:new 0 0 60 60;" xml:space="preserve">
<style type="text/css">
	.st0{fill:#EAECEE;}
	.st1{fill:#FFFFFF;}
	.st2{fill:#808DA0;stroke:#808DA0;stroke-width:0.6;}
	.st3{fill:none;stroke:#808DA0;stroke-width:0.6;stroke-miterlimit:10;}
	.st4{fill:#FFFFFF;stroke:#808DA0;stroke-width:0.6;stroke-miterlimit:10;}
	.st5{fill:#FFFFFF;stroke:#808DA0;stroke-width:0.8;}
	.st6{fill:none;stroke:#808DA0;stroke-width:0.8;}
	.st7{fill:none;stroke:#808DA0;stroke-width:0.6;stroke-linecap:round;}
	.st8{fill:none;stroke:#808DA0;stroke-width:2;stroke-linecap:round;stroke-miterlimit:10;}
</style>
<path class="st0" d="M55,31c0,13.3-10.7,24-24,24S7,44.3,7,31C7,17.7,17.7,7,31,7S55,17.7,55,31"/>
<path class="st1" d="M51.7,23c0,0-0.8,30.2-23.9,30.3C5.3,53.2,3,26.4,3,26.4l15.4-7.6h6.5L51.7,23z"/>
<g>
	<path class="st2" d="M21.7,4.2l0,4.3v2.4h0V4.2z"/>
	<path class="st3" d="M20.3,12c0-0.2,0.1-0.4,0.3-0.4h2.1c0.1,0,0.3,0.2,0.3,0.4v0.7h-2.6V12z"/>
	<path class="st3" d="M20.3,13.7H23v-1.1h-2.6V13.7z"/>
	<path class="st4" d="M21.7,22.3c-2.9,0-3.4-2.6-3.2-3.8c0.3-1.6,1.5-3.3,1.8-4.8H23c0.4,1.5,1.3,3.1,1.8,4.8
		C25.2,19.7,24.5,22.3,21.7,22.3z"/>
	<path class="st3" d="M21.9,21.4c0,0,0.8-0.2,1.4-0.9c0.5-0.6,0.6-1.3,0.6-1.3"/>
</g>
<g>
	<path class="st5" d="M29.5,38.1L28,26.5c-0.2-0.7-0.9-0.7-1.2-0.6c-1.4,0.6-4.4,1.7-4.8,1.9c-0.4,0.2-0.5,0.7-0.5,1l1.8,12.8
		l5.9-2.2C29.6,39.1,29.5,38.1,29.5,38.1z"/>
	<path class="st6" d="M21.7,29.5l6.4-2.4"/>
	<path class="st6" d="M23,39.6l6.4-2.4"/>
	<path class="st7" d="M24.3,27.7l1.2-0.4"/>
	<path class="st5" d="M26.1,52.9l-6.4-9.7c-1-1.5,0-2.4,0.6-2.6c-0.2-0.6-0.4-1.1-0.7-1.9c-0.1-0.2-0.4-2.7,0.3-3.6
		c0.2-0.2,1-0.9,1.8-1.4l0.4,2.1c0.7-0.6,1.6-0.8,2.2-1c0.2,0,1-0.2,0.9,0.6c-0.1,0.7-1.2,0.6-1.1,0.9c0.5,1.1,0.2,3.1,0,3.8
		l0.7,0.7l6.6,9c0.7-2.7,2.4-8.6,3.5-10.7c1.4-2.6,2.6-2.7,3.3-3.2c0.6-0.4,4.9-1.7,7.1-2.3c-0.1-0.8-0.4-2.9-0.4-2.9
		c-4.3-0.1-4.3-1.5-4.9-3.3c-0.9-1.8,0.1-5.2,0-6.1c-0.1-0.7,0.7-3,1.2-4c0.9-1.2,4.4-4.5,6.6-4.8c0,0,6.4,11.4,5.8,15.5
		c-0.2,1.3-2,1.9-3,2.4c0.1,1.1,2,1.4,2.3,1.6c0,0-0.7,8.3-8.4,15C35.7,54.4,26.1,52.9,26.1,52.9z M38.3,50.4
		c0.7-2.7,1.1-3.6,1.4-4.5"/>
</g>
<path class="st8" d="M6.2,40.2C4.2,36.6,3,32.4,3,28C3,14.2,14.2,3,28,3s25,11.2,25,25S41.8,53,28,53c-5.9,0-11.3-2-15.6-5.5"/>
</svg>
